<?xml version="1.0" encoding="UTF-8" standalone="no"?>
<!-- Created with Inkscape (http://www.inkscape.org/) -->

<svg
   width="1000"
   height="1000"
   viewBox="0 0 1000 1000"
   version="1.1"
   id="svg1"
   inkscape:version="1.4.2 (ebf0e940d0, 2025-05-08)"
   sodipodi:docname="Logo.svg"
   inkscape:export-filename="apolink_logo.svg"
   inkscape:export-xdpi="1200"
   inkscape:export-ydpi="1200"
   xmlns:inkscape="http://www.inkscape.org/namespaces/inkscape"
   xmlns:sodipodi="http://sodipodi.sourceforge.net/DTD/sodipodi-0.dtd"
   xmlns="http://www.w3.org/2000/svg"
   xmlns:svg="http://www.w3.org/2000/svg">
  <sodipodi:namedview
     id="namedview1"
     pagecolor="#505050"
     bordercolor="#eeeeee"
     borderopacity="1"
     inkscape:showpageshadow="0"
     inkscape:pageopacity="0"
     inkscape:pagecheckerboard="false"
     inkscape:deskcolor="#505050"
     inkscape:document-units="px"
     inkscape:clip-to-page="false"
     inkscape:zoom="0.096191382"
     inkscape:cx="-3493.0364"
     inkscape:cy="2380.6706"
     inkscape:window-width="1920"
     inkscape:window-height="1080"
     inkscape:window-x="0"
     inkscape:window-y="0"
     inkscape:window-maximized="1"
     inkscape:current-layer="layer1"
     showgrid="false">
    <inkscape:page
       x="0"
       y="0"
       width="1000"
       height="1000"
       id="page74"
       margin="0"
       bleed="0"
       inkscape:label="Logo"
       inkscape:export-filename="Logo.svg"
       inkscape:export-xdpi="1200"
       inkscape:export-ydpi="1200" />
  </sodipodi:namedview>
  <defs
     id="defs1" />
  <g
     inkscape:label="Layer 1"
     inkscape:groupmode="layer"
     id="layer1"
     transform="translate(3102.778,-578.16651)">
    <path
       id="path33-9-3"
       style="baseline-shift:baseline;display:inline;overflow:visible;vector-effect:none;fill:#24aa62;fill-opacity:1;stroke-width:40.6021;stroke-dasharray:none;paint-order:stroke fill markers;enable-background:accumulate;stop-color:#000000"
       d="m -2641.2839,698.10377 c -25.7249,0 -49.113,10.52263 -66.0698,27.47858 -16.9578,16.95714 -27.484,40.34857 -27.484,66.07538 v 192.95169 c 0,25.72608 10.5269,49.11318 27.484,66.07018 15.8568,15.8565 37.3367,26.0897 61.0938,27.3508 v 0.267 c -23.7567,1.2607 -45.237,11.4896 -61.0938,27.3455 -11.1911,11.1906 -19.5805,25.1833 -23.9925,40.8002 h 35.0149 c 4.8734,0 9.3357,-0.945 13.2415,-2.6824 1.8194,-2.752 3.9072,-5.3017 6.227,-7.6215 7.8696,-7.8686 18.4214,-13.0557 30.3421,-14.2369 -1.1809,11.9209 -6.362,22.4777 -14.2316,30.3474 -9.0035,9.0034 -21.5216,14.4923 -35.579,14.4923 h -192.9517 c -14.0568,0 -26.5759,-5.4898 -35.5792,-14.4923 -9.0044,-9.0035 -14.4922,-21.5207 -14.4922,-35.5791 v -77.0126 c 0,-14.0573 5.4889,-26.5754 14.4922,-35.5789 9.0037,-9.00351 21.5216,-14.49238 35.5792,-14.49238 h 134.2527 c -0.07,-1.65024 -0.1071,-3.30934 -0.1071,-4.97633 v -38.5064 h -134.1465 c -25.7259,0 -49.113,10.52706 -66.07,27.48409 -16.9568,16.95703 -27.4838,40.34412 -27.4838,66.06992 v 77.0126 c 0,25.7267 10.526,49.1182 27.4838,66.0752 16.957,16.9561 40.3449,27.4787 66.07,27.4787 h 192.9517 c 25.726,0 49.1185,-10.5217 66.0755,-27.4787 15.8569,-15.8569 26.0849,-37.3412 27.3455,-61.0991 h 0.2616 c 1.261,23.7585 11.4986,45.2422 27.3562,61.0991 11.1898,11.1893 25.1802,19.5763 40.7948,23.9875 v -35.0152 c 0,-4.8736 -0.9393,-9.341 -2.677,-13.247 -2.7519,-1.8189 -5.3076,-3.9024 -7.627,-6.2216 -7.8705,-7.8697 -13.0561,-18.4258 -14.2368,-30.3472 11.9212,1.1809 22.4777,6.3671 30.3475,14.2369 9.0032,9.0037 14.4923,21.5215 14.4923,35.5789 v 192.9517 c 0,14.0567 -5.4899,26.5755 -14.4923,35.5792 -9.0036,9.0043 -21.5209,14.4922 -35.5792,14.4922 h -77.0124 c -14.0573,0 -26.5756,-5.4889 -35.579,-14.4922 v 0 c -9.0036,-9.0034 -14.4925,-21.5215 -14.4925,-35.5792 v -134.2527 c -1.6502,0.07 -3.3092,0.1121 -4.9763,0.1121 h -38.5061 v 134.1409 c 0,25.7263 10.5267,49.118 27.4838,66.0754 16.957,16.9569 40.3441,27.4837 66.0701,27.4837 h 77.0124 c 25.7267,0 49.1182,-10.5257 66.0754,-27.4837 16.956,-16.9565 27.4785,-40.3447 27.4785,-66.0699 v -192.9517 c 0,-25.7259 -10.5217,-49.1181 -27.4785,-66.0751 -15.8569,-15.8569 -37.3413,-26.0851 -61.099,-27.3458 v -0.267 c 23.7582,-1.2612 45.2419,-11.4931 61.099,-27.3508 11.1894,-11.1899 19.576,-25.1804 23.9872,-40.7949 h -35.0148 c -4.8769,0 -9.3407,0.9464 -13.2469,2.6876 -1.8182,2.7498 -3.9047,5.2988 -6.2217,7.616 -7.87,7.8709 -18.4261,13.0562 -30.3475,14.2371 1.1809,-11.921 6.3674,-22.4776 14.2368,-30.3473 9.0037,-9.00335 21.5216,-14.49233 35.5793,-14.49233 h 192.9517 c 14.0582,0 26.5752,5.48789 35.5789,14.49233 9.0025,9.0033 14.4924,21.5224 14.4924,35.5792 v 77.0124 c 0,14.0573 -5.4888,26.5756 -14.4924,35.5789 -9.0033,9.0036 -21.5216,14.4925 -35.5789,14.4925 h -134.253 c 0.07,1.6504 0.106,3.3092 0.106,4.9765 v 38.506 h 134.1465 c 25.7259,0 49.1184,-10.5217 66.0755,-27.4788 16.9568,-16.9568 27.4783,-40.3491 27.4783,-66.0751 v -77.0124 c 0,-25.7255 -10.5225,-49.11336 -27.4783,-66.07006 -16.9573,-16.95812 -40.3487,-27.4841 -66.0755,-27.4841 h -192.9517 c -25.726,0 -49.1131,10.52706 -66.07,27.4841 -15.8567,15.85676 -26.095,37.33656 -27.3561,61.09376 h -0.2615 c -1.261,-23.7562 -11.4901,-45.23721 -27.3457,-61.09376 -11.1907,-11.19122 -25.1832,-19.58058 -40.8003,-23.99267 v 35.01487 c 0,4.8763 0.9414,9.34104 2.6825,13.24694 2.7494,1.81806 5.3039,3.90422 7.6215,6.22172 7.8688,7.8697 13.0504,18.4269 14.2314,30.3473 -11.9208,-1.1811 -22.4721,-6.3673 -30.3418,-14.2371 -9.0035,-9.0032 -14.4926,-21.52124 -14.4926,-35.57886 V 791.66292 c 0,-14.05829 5.4881,-26.57544 14.4926,-35.579 9.0033,-9.00248 21.5223,-14.49244 35.5789,-14.49244 h 77.0124 c 14.0578,0 26.5756,5.48898 35.5793,14.49244 9.0033,9.00345 14.4922,21.52158 14.4922,35.579 V 925.9211 c 1.6505,-0.0714 3.3095,-0.1117 4.9763,-0.1117 h 38.5064 V 791.66303 c 0,-25.72594 -10.5219,-49.11835 -27.4787,-66.07538 -16.9569,-16.95693 -40.3493,-27.47858 -66.0755,-27.47858 z m 38.5064,346.80643 a 33.252687,33.252687 0 0 1 33.2532,33.2532 33.252687,33.252687 0 0 1 -33.2532,33.2531 33.252687,33.252687 0 0 1 -33.253,-33.2531 33.252687,33.252687 0 0 1 33.253,-33.2532 z" />
  </g>
</svg>
